<?xml version="1.0" standalone="no"?>
<!DOCTYPE svg PUBLIC "-//W3C//DTD SVG 20010904//EN"
 "https://www.w3.org/TR/2001/REC-SVG-20010904/DTD/svg10.dtd">
<svg version="1.0" xmlns="https://www.w3.org/2000/svg"
 width="303.000000pt" height="303.000000pt" viewBox="0 0 303.000000 303.000000"
 preserveAspectRatio="xMidYMid meet">
<metadata>
Created by potrace 1.11, written by Peter Selinger 2001-2013
</metadata>
<g transform="translate(0.000000,303.000000) scale(0.100000,-0.100000)"
fill="#000000" stroke="none">
<path d="M306 2941 c-30 -18 -47 -67 -49 -141 l-2 -45 -45 1 c-25 1 -48 -4
-52 -10 -6 -8 -8 -8 -8 1 0 20 -56 -8 -74 -38 -17 -29 -12 -89 7 -89 6 0 7 -3
4 -7 -4 -3 0 -17 8 -30 9 -13 13 -23 10 -23 -3 0 0 -10 7 -22 7 -13 11 -27 10
-31 -1 -4 5 -10 13 -13 8 -3 13 -10 10 -14 -3 -4 11 -40 30 -79 19 -39 35 -75
35 -81 0 -6 4 -8 10 -5 5 3 10 -3 10 -14 0 -11 9 -36 21 -55 12 -20 17 -36 12
-36 -4 0 0 -5 9 -10 9 -6 19 -23 23 -39 3 -15 14 -37 24 -47 17 -19 21 -26 29
-56 2 -10 8 -18 13 -18 5 0 9 -6 9 -13 0 -7 15 -37 34 -67 19 -30 32 -58 30
-62 -3 -5 2 -8 11 -8 9 0 13 -4 10 -10 -3 -5 -1 -10 4 -10 6 0 11 -8 11 -17 0
-9 9 -27 21 -39 11 -12 21 -31 22 -42 0 -11 4 -19 8 -17 3 3 12 -8 20 -23 8
-15 17 -31 22 -37 22 -30 95 -145 92 -145 -3 0 4 -10 15 -22 10 -13 18 -25 17
-28 -1 -3 10 -18 26 -33 15 -16 27 -32 27 -36 0 -4 11 -21 25 -37 40 -46 45
-53 45 -64 0 -5 3 -10 8 -10 4 0 18 -18 32 -40 13 -22 30 -42 37 -44 7 -3 13
-13 13 -21 0 -9 5 -13 10 -10 6 3 10 0 10 -8 0 -8 9 -22 20 -32 11 -10 20 -24
20 -32 0 -8 4 -12 9 -9 4 3 23 -15 40 -39 18 -25 37 -45 43 -45 6 0 9 -3 5 -6
-9 -9 218 -243 330 -341 30 -26 68 -60 84 -75 16 -15 29 -25 29 -23 0 6 36
-23 61 -49 11 -11 19 -16 19 -12 0 4 6 1 14 -6 8 -7 12 -16 9 -21 -2 -4 -1 -7
4 -6 12 4 63 -23 63 -33 0 -4 6 -8 14 -8 8 0 17 -7 20 -16 3 -8 10 -12 16 -9
5 3 10 2 10 -3 0 -5 12 -15 28 -23 15 -7 42 -24 60 -37 17 -14 32 -20 32 -16
0 5 4 4 8 -2 10 -16 104 -64 113 -59 4 3 9 -1 12 -9 3 -8 19 -17 36 -21 19 -4
28 -11 25 -17 -4 -6 -2 -8 3 -5 6 4 35 -4 65 -17 30 -14 64 -26 74 -28 10 -2
22 -7 25 -12 4 -5 20 -9 37 -10 17 0 28 -4 25 -8 -2 -5 7 -8 21 -8 14 0 28 -5
31 -11 4 -6 12 -8 19 -6 6 2 22 0 36 -6 24 -9 33 -11 98 -21 15 -3 27 -5 27
-6 0 -13 372 -34 416 -23 12 4 15 19 14 79 0 42 3 78 7 80 5 3 5 11 1 17 -4 7
-9 41 -10 77 -2 36 -6 72 -9 80 -3 8 -8 35 -10 60 -10 104 -11 104 -31 158 -3
9 -7 24 -8 32 -1 8 -5 23 -10 33 -4 10 -5 20 -2 24 3 3 -1 12 -9 20 -8 8 -12
19 -9 24 4 5 1 9 -5 9 -6 0 -9 4 -5 9 3 5 1 12 -4 16 -5 3 -8 14 -6 25 2 11 0
20 -5 20 -4 0 -11 7 -14 16 -4 10 -2 13 7 8 8 -6 8 -3 -1 9 -22 26 -51 87 -38
80 6 -3 3 3 -7 14 -10 11 -19 30 -20 42 -1 11 -4 21 -8 21 -4 0 -21 28 -39 63
-30 59 -46 88 -63 111 -27 38 -57 88 -57 96 0 6 -5 10 -12 10 -6 0 -9 3 -5 6
3 3 -2 14 -11 24 -32 35 -42 49 -42 59 0 5 -3 11 -8 13 -4 2 -20 18 -37 37
-16 19 -23 30 -15 26 8 -5 4 3 -10 17 -47 47 -90 96 -90 104 0 4 -40 47 -89
95 -49 48 -86 91 -83 94 3 3 0 5 -6 5 -6 0 -42 32 -80 70 -38 39 -74 70 -80
70 -6 0 -12 4 -14 8 -6 16 -172 155 -219 184 -15 9 -28 20 -30 25 -8 16 -97
72 -104 65 -5 -4 -5 -2 -2 4 3 6 -12 21 -33 35 -22 13 -40 27 -40 32 0 4 -5 7
-10 7 -6 0 -21 9 -33 20 -12 11 -27 18 -35 15 -7 -2 -10 0 -7 5 3 6 -2 13 -12
17 -10 4 -23 12 -30 17 -32 28 -43 36 -48 37 -11 0 -65 35 -65 42 0 4 -5 7
-10 7 -6 0 -27 11 -48 24 -20 12 -41 23 -46 24 -5 0 -12 4 -15 9 -11 15 -93
65 -86 51 5 -7 -2 -3 -14 10 -12 12 -26 20 -32 17 -5 -4 -9 -2 -9 2 0 5 -17
17 -37 28 -21 11 -41 24 -45 30 -4 6 -8 6 -8 1 0 -6 -7 -1 -16 10 -8 10 -13
13 -9 7 9 -18 -1 -16 -21 4 -9 10 -24 18 -33 20 -8 1 -17 7 -19 12 -2 6 -8 11
-14 11 -15 0 -222 103 -230 115 -4 6 -8 6 -8 1 0 -5 -7 -3 -15 4 -8 7 -15 9
-15 6 0 -4 -7 0 -16 8 -8 9 -20 14 -25 11 -5 -4 -9 -2 -9 3 0 9 -79 39 -92 34
-5 -1 -8 2 -8 7 0 5 -12 13 -27 19 -16 6 -37 13 -48 18 -35 13 -41 12 -69 -5z"/>
</g>
</svg>
